0
SECTION
2
HEADER
9
$INSUNITS
70
4
9
$ACADVER
1
AC1014
9
$HANDSEED
5
FFFF
0
ENDSEC
0
SECTION
2
TABLES
0
TABLE
2
VPORT
5
8
100
AcDbSymbolTable
0
ENDTAB
0
TABLE
2
LTYPE
5
5
100
AcDbSymbolTable
0
LTYPE
5
14
100
AcDbSymbolTableRecord
100
AcDbLinetypeTableRecord
2
BYBLOCK
70
0
0
LTYPE
5
15
100
AcDbSymbolTableRecord
100
AcDbLinetypeTableRecord
2
BYLAYER
70
0
0
ENDTAB
0
TABLE
2
LAYER
5
2
100
AcDbSymbolTable
70
2
0
LAYER
5
50
100
AcDbSymbolTableRecord
100
AcDbLayerTableRecord
2
0
70
0
6
CONTINUOUS
0
ENDTAB
0
TABLE
2
STYLE
5
3
100
AcDbSymbolTable
70
1
0
STYLE
5
11
100
AcDbSymbolTableRecord
100
AcDbTextStyleTableRecord
2
STANDARD
70
0
0
ENDTAB
0
TABLE
2
VIEW
5
6
100
AcDbSymbolTable
70
0
0
ENDTAB
0
TABLE
2
UCS
5
7
100
AcDbSymbolTable
70
0
0
ENDTAB
0
TABLE
2
APPID
5
9
100
AcDbSymbolTable
70
2
0
APPID
5
12
100
AcDbSymbolTableRecord
100
AcDbRegAppTableRecord
2
ACAD
70
0
0
ENDTAB
0
TABLE
2
DIMSTYLE
5
A
100
AcDbSymbolTable
70
1
0
ENDTAB
0
TABLE
2
BLOCK_RECORD
5
1
100
AcDbSymbolTable
70
1
0
BLOCK_RECORD
5
1F
100
AcDbSymbolTableRecord
100
AcDbBlockTableRecord
2
*MODEL_SPACE
0
BLOCK_RECORD
5
1B
100
AcDbSymbolTableRecord
100
AcDbBlockTableRecord
2
*PAPER_SPACE
0
ENDTAB
0
ENDSEC
0
SECTION
2
BLOCKS
0
BLOCK
5
20
100
AcDbEntity
100
AcDbBlockBegin
2
*MODEL_SPACE
0
ENDBLK
5
21
100
AcDbEntity
100
AcDbBlockEnd
0
BLOCK
5
1C
100
AcDbEntity
100
AcDbBlockBegin
2
*PAPER_SPACE
0
ENDBLK
5
1D
100
AcDbEntity
100
AcDbBlockEnd
0
ENDSEC
0
SECTION
2
ENTITIES
0
LWPOLYLINE
5
100
100
AcDbEntity
8
0
100
AcDbPolyline
90
4
70
1
43
0.0
10
-12.500000000000007
20
-28
10
-12.500000000000007
20
-14.999999999999996
10
-31.500000000000014
20
-14.999999999999996
10
-31.500000000000014
20
-28
0
LWPOLYLINE
5
101
100
AcDbEntity
8
0
100
AcDbPolyline
90
8
70
1
43
0.0
10
0
20
-3.0000000000000071
10
0
20
-230
42
-2.6500750732133365
10
-44
20
-230
10
-44
20
-3.0000000000000071
10
-27
20
-3.0000000000000071
10
-27
20
0
10
-17
20
0
10
-17
20
-3.0000000000000071
0
LWPOLYLINE
5
102
100
AcDbEntity
8
0
100
AcDbPolyline
90
2
70
1
43
0.0
10
-0.7187499999999809
20
-253.5266030957342
42
-5.2387445485005522
10
-0.71874999999998712
20
-256.47339690426583
42
-1.2089410496539861
0
LWPOLYLINE
5
103
100
AcDbEntity
8
0
100
AcDbPolyline
90
2
70
1
43
0.0
10
-38.089965129511789
20
-269.00626724474063
42
-1.2089410496539696
10
-36.006267244740577
20
-271.08996512951182
42
-5.2387445485006285
0
LWPOLYLINE
5
104
100
AcDbEntity
8
0
100
AcDbPolyline
90
2
70
1
43
0.0
10
-43.28125
20
-253.52660309573423
42
-1.208941049653989
10
-43.28125
20
-256.47339690426577
42
-5.2387445485006348
0
LWPOLYLINE
5
105
100
AcDbEntity
8
0
100
AcDbPolyline
90
2
70
1
43
0.0
10
-5.9100348704881505
20
-269.00626724474068
42
-5.2387445485005655
10
-7.9937327552593729
20
-271.08996512951182
42
-1.2089410496540132
0
LWPOLYLINE
5
106
100
AcDbEntity
8
0
100
AcDbPolyline
90
2
70
1
43
0.0
10
-23.473396904265783
20
-276.28125
42
-1.2089410496539708
10
-20.526603095734202
20
-276.28125
42
-5.2387445485005397
0
LWPOLYLINE
5
107
100
AcDbEntity
8
0
100
AcDbPolyline
90
4
70
1
43
0.0
10
-17.000000000000007
20
-197
10
-17.000000000000007
20
-194
10
-27.000000000000007
20
-194
10
-27.000000000000007
20
-197
0
LWPOLYLINE
5
108
100
AcDbEntity
8
0
100
AcDbPolyline
90
4
70
1
43
0.0
10
-17
20
-46
10
-17
20
-43.000000000000007
10
-27
20
-43.000000000000007
10
-27
20
-46
0
LWPOLYLINE
5
109
100
AcDbEntity
8
0
100
AcDbPolyline
90
4
70
1
43
0.0
10
-27
20
-230
10
-17
20
-230
10
-17
20
-227
10
-27
20
-227
0
ENDSEC
0
SECTION
2
OBJECTS
0
DICTIONARY
5
C
100
AcDbDictionary
3
ACAD_GROUP
350
D
3
ACAD_MLINESTYLE
350
17
0
DICTIONARY
5
D
100
AcDbDictionary
0
DICTIONARY
5
1A
330
C
100
AcDbDictionary
0
DICTIONARY
5
17
100
AcDbDictionary
0
ENDSEC
0
EOF
