0
SECTION
2
HEADER
9
$INSUNITS
70
4
9
$ACADVER
1
AC1014
9
$HANDSEED
5
FFFF
0
ENDSEC
0
SECTION
2
TABLES
0
TABLE
2
VPORT
5
8
100
AcDbSymbolTable
0
ENDTAB
0
TABLE
2
LTYPE
5
5
100
AcDbSymbolTable
0
LTYPE
5
14
100
AcDbSymbolTableRecord
100
AcDbLinetypeTableRecord
2
BYBLOCK
70
0
0
LTYPE
5
15
100
AcDbSymbolTableRecord
100
AcDbLinetypeTableRecord
2
BYLAYER
70
0
0
ENDTAB
0
TABLE
2
LAYER
5
2
100
AcDbSymbolTable
70
2
0
LAYER
5
50
100
AcDbSymbolTableRecord
100
AcDbLayerTableRecord
2
0
70
0
6
CONTINUOUS
0
ENDTAB
0
TABLE
2
STYLE
5
3
100
AcDbSymbolTable
70
1
0
STYLE
5
11
100
AcDbSymbolTableRecord
100
AcDbTextStyleTableRecord
2
STANDARD
70
0
0
ENDTAB
0
TABLE
2
VIEW
5
6
100
AcDbSymbolTable
70
0
0
ENDTAB
0
TABLE
2
UCS
5
7
100
AcDbSymbolTable
70
0
0
ENDTAB
0
TABLE
2
APPID
5
9
100
AcDbSymbolTable
70
2
0
APPID
5
12
100
AcDbSymbolTableRecord
100
AcDbRegAppTableRecord
2
ACAD
70
0
0
ENDTAB
0
TABLE
2
DIMSTYLE
5
A
100
AcDbSymbolTable
70
1
0
ENDTAB
0
TABLE
2
BLOCK_RECORD
5
1
100
AcDbSymbolTable
70
1
0
BLOCK_RECORD
5
1F
100
AcDbSymbolTableRecord
100
AcDbBlockTableRecord
2
*MODEL_SPACE
0
BLOCK_RECORD
5
1B
100
AcDbSymbolTableRecord
100
AcDbBlockTableRecord
2
*PAPER_SPACE
0
ENDTAB
0
ENDSEC
0
SECTION
2
BLOCKS
0
BLOCK
5
20
100
AcDbEntity
100
AcDbBlockBegin
2
*MODEL_SPACE
0
ENDBLK
5
21
100
AcDbEntity
100
AcDbBlockEnd
0
BLOCK
5
1C
100
AcDbEntity
100
AcDbBlockBegin
2
*PAPER_SPACE
0
ENDBLK
5
1D
100
AcDbEntity
100
AcDbBlockEnd
0
ENDSEC
0
SECTION
2
ENTITIES
0
LWPOLYLINE
5
100
100
AcDbEntity
8
0
100
AcDbPolyline
90
100
70
1
43
0.0
10
-15.375155197809807
20
73.407115476929491
42
-0.034951640349228902
10
-5.0000000000000639
20
74.833147735478803
10
-5.0000000000005294
20
71.833147735478832
10
4.9999999999994706
20
71.833147735478832
10
4.9999999999998739
20
74.833147735478803
42
-0.034951640349229235
10
15.375155197809715
20
73.407115476929491
10
14.565764884338201
20
70.518363614886255
10
24.194937757816195
20
67.820395903316012
10
25.004328071287723
20
70.709147765359248
42
-0.034951640349228902
10
34.610005471252741
20
66.536813278664397
10
33.05125362114606
20
63.973555065025216
10
41.595447666610937
20
58.777715564670878
10
43.154199516717611
20
61.340973778310087
42
-0.034951640349229235
10
51.277989969132697
20
54.731780025187589
10
49.085482076298028
20
52.684120595531994
10
55.911013508484558
20
45.375760952750753
10
58.103521401319192
20
47.423420382406398
42
-0.034951640349229124
10
64.142920532197024
20
38.867541028475834
10
61.479264876989717
20
37.487345915282816
10
66.079915254301241
20
28.60849373125906
10
68.743570909508549
20
29.988688844452156
42
-0.034951640349229235
10
72.250664113724582
20
20.120674320850888
10
69.313411850677539
20
19.510306281693452
10
71.347971981203884
20
9.7194654048702223
10
74.285224244250912
20
10.329833444027637
42
-0.034951640349228902
10
74.99990646273227
20
-0.11845075519131498
10
72.006900155160736
20
0.086276484903162753
10
71.324476021514016
20
-9.8904112070022343
10
74.317482329085593
20
-10.09513844709673
42
-0.034951640349228902
10
72.186748851141132
20
-20.348790880597125
10
69.359966084784858
20
-19.344152044083724
10
66.011169963074991
20
-28.766761265271938
10
68.837952729431294
20
-29.771400101785311
42
-0.034951640349228902
10
64.019830309663092
20
-39.069954275913084
10
61.568920630632064
20
-37.339913309568132
10
55.802117409483394
20
-45.509612239672549
10
58.253027088514465
20
-47.239653206017501
42
-0.034951640349229124
10
51.104853825353288
20
-54.893477895732502
10
49.211589992375515
20
-52.566344023618981
10
41.454477085331305
20
-58.877223466879499
10
43.347740918309121
20
-61.204357338992999
42
-0.034951640349229235
10
34.39966412196685
20
-66.645803380977142
10
33.204460852428575
20
-63.894169476460632
10
24.03234783737404
20
-67.878180374923062
10
25.227551106912216
20
-70.629814279439614
42
-0.00080497441179741786
10
25.000000000000149
20
-70.710678118654684
10
25.000000000000323
20
-87.710678118654656
10
22.000000000000345
20
-87.710678118654656
10
22.000000000000345
20
-97.710678118654656
10
25.000000000000341
20
-97.710678118654656
10
25.000000000000405
20
-114.71067811865466
10
5.0000000000001723
20
-114.71067811865468
10
5.0000000000001723
20
-111.71067811865468
10
-4.9999999999998268
20
-111.71067811865468
10
-4.9999999999998268
20
-114.71067811865468
10
-25.000000000000057
20
-114.71067811865473
10
-25.000000000000032
20
-97.710678118654727
10
-22.000000000000032
20
-97.710678118654727
10
-22.00000000000006
20
-87.710678118654727
10
-25.000000000000036
20
-87.710678118654727
10
-25.000000000000192
20
-70.710678118654684
42
-0.00080497441179741786
10
-25.227551106912252
20
-70.629814279439586
10
-24.032347837373113
20
-67.878180374923431
10
-33.204460852427644
20
-63.89416947646103
10
-34.399664121966751
20
-66.645803380977185
42
-0.034951640349229124
10
-43.347740918309
20
-61.204357338993077
10
-41.454477085330495
20
-58.877223466880139
10
-49.211589992374698
20
-52.566344023619607
10
-51.10485382535316
20
-54.893477895732602
42
-0.034951640349229124
10
-58.253027088514351
20
-47.239653206017621
10
-55.80211740948279
20
-45.509612239673402
10
-61.56892063063146
20
-37.339913309568985
10
-64.019830309663007
20
-39.069954275913247
42
-0.034951640349229124
10
-68.837952729431208
20
-29.77140010178541
10
-66.011169963074636
20
-28.766761265272898
10
-69.359966084784503
20
-19.344152044084701
10
-72.186748851141118
20
-20.348790880597107
42
-0.03495164034922868
10
-74.31748232908555
20
-10.095138447096783
10
-71.324476021513945
20
-9.8904112070032468
10
-72.00690015516065
20
0.08627648490215023
10
-74.999906462732298
20
-0.11845075519137493
42
-0.034951640349228902
10
-74.285224244250941
20
10.329833444027576
10
-71.347971981204097
20
9.7194654048692275
10
-69.313411850677767
20
19.510306281692458
10
-72.250664113724611
20
20.120674320850831
42
-0.034951640349228902
10
-68.743570909508605
20
29.988688844452007
10
-66.079915254301724
20
28.608493731258147
10
-61.479264876990186
20
37.4873459152819
10
-64.14292053219711
20
38.867541028475721
42
-0.034951640349229124
10
-58.103521401319284
20
47.423420382406285
10
-55.911013508485254
20
45.375760952750007
10
-49.08548207629871
20
52.684120595531255
10
-51.277989969132776
20
54.731780025187533
42
-0.034951640349229124
10
-43.154199516717725
20
61.340973778310008
10
-41.595447666611847
20
58.777715564670331
10
-33.051253621146962
20
63.973555065024669
10
-34.61000547125289
20
66.53681327866434
42
-0.034951640349229124
10
-25.004328071287819
20
70.709147765359205
10
-24.194937757817208
20
67.820395903315728
10
-14.565764884339213
20
70.51836361488597
0
ENDSEC
0
SECTION
2
OBJECTS
0
DICTIONARY
5
C
100
AcDbDictionary
3
ACAD_GROUP
350
D
3
ACAD_MLINESTYLE
350
17
0
DICTIONARY
5
D
100
AcDbDictionary
0
DICTIONARY
5
1A
330
C
100
AcDbDictionary
0
DICTIONARY
5
17
100
AcDbDictionary
0
ENDSEC
0
EOF
