0
SECTION
2
HEADER
9
$INSUNITS
70
4
9
$ACADVER
1
AC1014
9
$HANDSEED
5
FFFF
0
ENDSEC
0
SECTION
2
TABLES
0
TABLE
2
VPORT
5
8
100
AcDbSymbolTable
0
ENDTAB
0
TABLE
2
LTYPE
5
5
100
AcDbSymbolTable
0
LTYPE
5
14
100
AcDbSymbolTableRecord
100
AcDbLinetypeTableRecord
2
BYBLOCK
70
0
0
LTYPE
5
15
100
AcDbSymbolTableRecord
100
AcDbLinetypeTableRecord
2
BYLAYER
70
0
0
ENDTAB
0
TABLE
2
LAYER
5
2
100
AcDbSymbolTable
70
2
0
LAYER
5
50
100
AcDbSymbolTableRecord
100
AcDbLayerTableRecord
2
0
70
0
6
CONTINUOUS
0
ENDTAB
0
TABLE
2
STYLE
5
3
100
AcDbSymbolTable
70
1
0
STYLE
5
11
100
AcDbSymbolTableRecord
100
AcDbTextStyleTableRecord
2
STANDARD
70
0
0
ENDTAB
0
TABLE
2
VIEW
5
6
100
AcDbSymbolTable
70
0
0
ENDTAB
0
TABLE
2
UCS
5
7
100
AcDbSymbolTable
70
0
0
ENDTAB
0
TABLE
2
APPID
5
9
100
AcDbSymbolTable
70
2
0
APPID
5
12
100
AcDbSymbolTableRecord
100
AcDbRegAppTableRecord
2
ACAD
70
0
0
ENDTAB
0
TABLE
2
DIMSTYLE
5
A
100
AcDbSymbolTable
70
1
0
ENDTAB
0
TABLE
2
BLOCK_RECORD
5
1
100
AcDbSymbolTable
70
1
0
BLOCK_RECORD
5
1F
100
AcDbSymbolTableRecord
100
AcDbBlockTableRecord
2
*MODEL_SPACE
0
BLOCK_RECORD
5
1B
100
AcDbSymbolTableRecord
100
AcDbBlockTableRecord
2
*PAPER_SPACE
0
ENDTAB
0
ENDSEC
0
SECTION
2
BLOCKS
0
BLOCK
5
20
100
AcDbEntity
100
AcDbBlockBegin
2
*MODEL_SPACE
0
ENDBLK
5
21
100
AcDbEntity
100
AcDbBlockEnd
0
BLOCK
5
1C
100
AcDbEntity
100
AcDbBlockBegin
2
*PAPER_SPACE
0
ENDBLK
5
1D
100
AcDbEntity
100
AcDbBlockEnd
0
ENDSEC
0
SECTION
2
ENTITIES
0
CIRCLE
5
100
100
AcDbEntity
8
0
100
AcDbCircle
10
-8.6602540378443607
20
5.000000000000048
30
0
40
2.5499999999999998
210
0
220
0
230
1
0
CIRCLE
5
101
100
AcDbEntity
8
0
100
AcDbCircle
10
8.6602540378444104
20
5.0000000000000053
30
0
40
2.5499999999999989
210
0
220
0
230
1
0
CIRCLE
5
102
100
AcDbEntity
8
0
100
AcDbCircle
10
-1.1102229915379207e-14
20
-9.9999999999999734
30
0
40
2.5499999999999998
210
0
220
0
230
1
0
LWPOLYLINE
5
103
100
AcDbEntity
8
0
100
AcDbPolyline
90
4
70
1
43
0.0
10
15.499999999999655
20
46.833147735478846
10
15.499999999999655
20
61.833147735478846
10
-15.500000000000345
20
61.833147735478846
10
-15.500000000000345
20
46.833147735478846
0
LWPOLYLINE
5
104
100
AcDbEntity
8
0
100
AcDbPolyline
90
8
70
1
43
0.0
10
-7.0000000000000746
20
-101.71067811865468
10
7.0000000000003304
20
-101.71067811865468
42
0.4142135623730932
10
12.00000000000033
20
-96.710678118654684
10
12.000000000000153
20
-86.710678118654727
42
0.4142135623730932
10
6.0000000000001519
20
-80.710678118654741
10
-7.0000000000000862
20
-80.710678118654741
42
0.41421356237309404
10
-12.000000000000075
20
-85.710678118654741
10
-12.000000000000075
20
-96.710678118654684
42
0.4142135623730932
0
LWPOLYLINE
5
105
100
AcDbEntity
8
0
100
AcDbPolyline
90
4
70
1
43
0.0
10
-4.9999999999999689
20
-73.710678118654741
10
5.0000000000000311
20
-73.710678118654741
10
5.0000000000000311
20
-70.710678118654741
10
-4.9999999999999689
20
-70.710678118654741
0
LWPOLYLINE
5
106
100
AcDbEntity
8
0
100
AcDbPolyline
90
102
70
1
43
0.0
10
-22.00000000000006
20
-97.710678118654712
10
-25.000000000000032
20
-97.710678118654712
10
-25.000000000000032
20
-87.710678118654712
10
-22.00000000000006
20
-87.710678118654712
10
-22.000000000000092
20
-70.710678118654741
10
-24.999999999997588
20
-70.710678118655622
42
-0.00080497441180596657
10
-25.227551106912074
20
-70.629814279439657
10
-24.032347837373113
20
-67.878180374923431
10
-33.204460852427644
20
-63.894169476461016
10
-34.399664121966779
20
-66.645803380977213
42
-0.034951640349229235
10
-43.347740918309071
20
-61.20435733899307
10
-41.454477085330495
20
-58.877223466880139
10
-49.211589992374698
20
-52.566344023619607
10
-51.104853825353196
20
-54.893477895732595
42
-0.034951640349228902
10
-58.253027088514351
20
-47.239653206017643
10
-55.80211740948279
20
-45.509612239673409
10
-61.56892063063146
20
-37.339913309568985
10
-64.01983030966305
20
-39.069954275913261
42
-0.034951640349229124
10
-68.837952729431265
20
-29.771400101785428
10
-66.01116996307465
20
-28.766761265272898
10
-69.359966084784503
20
-19.344152044084694
10
-72.186748851141118
20
-20.348790880597317
42
-0.034951640349229124
10
-74.317482329085593
20
-10.095138447096854
10
-71.324476021513945
20
-9.8904112070032468
10
-72.006900155160665
20
0.08627648490215023
10
-74.999906462732312
20
-0.11845075519147041
42
-0.034951640349229124
10
-74.285224244250955
20
10.32983344402755
10
-71.347971981204097
20
9.7194654048692186
10
-69.313411850677767
20
19.510306281692458
10
-72.250664113724639
20
20.120674320850739
42
-0.034951640349229235
10
-68.743570909508605
20
29.988688844452014
10
-66.079915254301724
20
28.608493731258147
10
-61.479264876990186
20
37.487345915281907
10
-64.142920532197124
20
38.867541028475735
42
-0.034951640349229235
10
-58.103521401319291
20
47.423420382406327
10
-55.911013508485254
20
45.375760952749999
10
-49.08548207629871
20
52.684120595531247
10
-51.277989969132783
20
54.731780025187533
42
-0.034951640349229235
10
-43.154199516717711
20
61.34097377831003
10
-41.595447666611847
20
58.777715564670331
10
-33.051253621146962
20
63.973555065024676
10
-34.610005471252862
20
66.536813278664383
42
-0.034951640349229124
10
-25.004328071287787
20
70.709147765359262
10
-24.194937757817208
20
67.820395903315713
10
-14.565764884339213
20
70.51836361488597
10
-15.375155197809839
20
73.407115476929491
42
-0.034951640349228902
10
-5.0000000000000977
20
74.833147735478818
10
-5.0000000000005285
20
71.833147735478846
10
4.9999999999994715
20
71.833147735478846
10
4.9999999999998952
20
74.833147735478803
42
-0.034951640349229235
10
15.375155197809732
20
73.407115476929476
10
14.565764884338201
20
70.518363614886255
10
24.194937757816199
20
67.820395903315998
10
25.004328071287688
20
70.70914776535929
42
-0.034951640349228902
10
34.610005471252705
20
66.53681327866444
10
33.05125362114606
20
63.973555065025209
10
41.595447666610937
20
58.777715564670885
10
43.154199516717625
20
61.340973778310101
42
-0.034951640349229235
10
51.27798996913269
20
54.731780025187589
10
49.085482076298028
20
52.684120595531994
10
55.911013508484558
20
45.375760952750746
10
58.103521401319227
20
47.42342038240637
42
-0.034951640349228902
10
64.142920532197024
20
38.867541028475863
10
61.47926487698971
20
37.487345915282816
10
66.079915254301227
20
28.608493731259053
10
68.743570909508506
20
29.988688844452209
42
-0.034951640349229457
10
72.250664113724554
20
20.120674320850878
10
69.313411850677539
20
19.510306281693452
10
71.347971981203884
20
9.7194654048702134
10
74.285224244250912
20
10.329833444027695
42
-0.034951640349229235
10
74.99990646273227
20
-0.11845075519135051
10
72.006900155160736
20
0.086276484903162753
10
71.324476021514016
20
-9.8904112070022343
10
74.317482329085607
20
-10.095138447096669
42
-0.034951640349229235
10
72.186748851141118
20
-20.348790880597161
10
69.359966084784844
20
-19.344152044083724
10
66.011169963074991
20
-28.766761265271938
10
68.837952729431308
20
-29.771400101785233
42
-0.034951640349229124
10
64.019830309663121
20
-39.069954275913076
10
61.56892063063205
20
-37.339913309568125
10
55.802117409483394
20
-45.509612239672549
10
58.253027088514465
20
-47.239653206017479
42
-0.034951640349229235
10
51.104853825353267
20
-54.893477895732502
10
49.211589992375515
20
-52.566344023618974
10
41.454477085331298
20
-58.877223466879499
10
43.347740918309164
20
-61.20435733899302
42
-0.034951640349229457
10
34.399664121966829
20
-66.645803380977185
10
33.204460852428575
20
-63.894169476460625
10
24.032347837374036
20
-67.878180374923048
10
25.227551106912195
20
-70.629814279439614
42
-0.00080497441179741786
10
25.000000000000128
20
-70.710678118654698
10
22.000000000000156
20
-70.710678118654741
10
22.000000000000345
20
-87.710678118654641
10
25.000000000000341
20
-87.710678118654641
10
25.000000000000341
20
-97.710678118654641
10
22.000000000000345
20
-97.710678118654641
10
22.000000000000334
20
-111.71067811865468
10
5.0000000000001732
20
-111.71067811865468
10
5.0000000000001732
20
-114.71067811865468
10
-4.9999999999998268
20
-114.71067811865468
10
-4.9999999999998268
20
-111.71067811865468
10
-22.000000000000085
20
-111.71067811865468
0
ENDSEC
0
SECTION
2
OBJECTS
0
DICTIONARY
5
C
100
AcDbDictionary
3
ACAD_GROUP
350
D
3
ACAD_MLINESTYLE
350
17
0
DICTIONARY
5
D
100
AcDbDictionary
0
DICTIONARY
5
1A
330
C
100
AcDbDictionary
0
DICTIONARY
5
17
100
AcDbDictionary
0
ENDSEC
0
EOF
