0
SECTION
2
HEADER
9
$INSUNITS
70
4
9
$ACADVER
1
AC1014
9
$HANDSEED
5
FFFF
0
ENDSEC
0
SECTION
2
TABLES
0
TABLE
2
VPORT
5
8
100
AcDbSymbolTable
0
ENDTAB
0
TABLE
2
LTYPE
5
5
100
AcDbSymbolTable
0
LTYPE
5
14
100
AcDbSymbolTableRecord
100
AcDbLinetypeTableRecord
2
BYBLOCK
70
0
0
LTYPE
5
15
100
AcDbSymbolTableRecord
100
AcDbLinetypeTableRecord
2
BYLAYER
70
0
0
ENDTAB
0
TABLE
2
LAYER
5
2
100
AcDbSymbolTable
70
2
0
LAYER
5
50
100
AcDbSymbolTableRecord
100
AcDbLayerTableRecord
2
0
70
0
6
CONTINUOUS
0
ENDTAB
0
TABLE
2
STYLE
5
3
100
AcDbSymbolTable
70
1
0
STYLE
5
11
100
AcDbSymbolTableRecord
100
AcDbTextStyleTableRecord
2
STANDARD
70
0
0
ENDTAB
0
TABLE
2
VIEW
5
6
100
AcDbSymbolTable
70
0
0
ENDTAB
0
TABLE
2
UCS
5
7
100
AcDbSymbolTable
70
0
0
ENDTAB
0
TABLE
2
APPID
5
9
100
AcDbSymbolTable
70
2
0
APPID
5
12
100
AcDbSymbolTableRecord
100
AcDbRegAppTableRecord
2
ACAD
70
0
0
ENDTAB
0
TABLE
2
DIMSTYLE
5
A
100
AcDbSymbolTable
70
1
0
ENDTAB
0
TABLE
2
BLOCK_RECORD
5
1
100
AcDbSymbolTable
70
1
0
BLOCK_RECORD
5
1F
100
AcDbSymbolTableRecord
100
AcDbBlockTableRecord
2
*MODEL_SPACE
0
BLOCK_RECORD
5
1B
100
AcDbSymbolTableRecord
100
AcDbBlockTableRecord
2
*PAPER_SPACE
0
ENDTAB
0
ENDSEC
0
SECTION
2
BLOCKS
0
BLOCK
5
20
100
AcDbEntity
100
AcDbBlockBegin
2
*MODEL_SPACE
0
ENDBLK
5
21
100
AcDbEntity
100
AcDbBlockEnd
0
BLOCK
5
1C
100
AcDbEntity
100
AcDbBlockBegin
2
*PAPER_SPACE
0
ENDBLK
5
1D
100
AcDbEntity
100
AcDbBlockEnd
0
ENDSEC
0
SECTION
2
ENTITIES
0
CIRCLE
5
100
100
AcDbEntity
8
0
100
AcDbCircle
10
0
20
-94.710678118654684
30
0
40
3.5000000000000004
210
0
220
0
230
1
0
LWPOLYLINE
5
101
100
AcDbEntity
8
0
100
AcDbPolyline
90
36
70
1
43
0.0
10
18.954482671904188
20
-42.290805137576882
10
21.053975315279345
20
-41.078662494762611
42
-0.073713722563663736
10
21.999999999999893
20
-47.460678118655707
10
22.000000000000057
20
-54.290805137576889
10
19.000000000000057
20
-54.290805137576889
10
19.000000000000057
20
-64.290805137576882
10
22.000000000000057
20
-64.290805137576882
10
22.000000000000345
20
-87.710678118654641
10
25.000000000000341
20
-87.710678118654641
10
25.000000000000341
20
-97.710678118654641
10
22.000000000000345
20
-97.710678118654641
10
22.00000000000033
20
-111.71067811865468
10
5.0000000000001732
20
-111.71067811865468
10
5.0000000000001732
20
-114.71067811865468
10
-4.9999999999998268
20
-114.71067811865468
10
-4.9999999999998268
20
-111.71067811865468
10
-22.000000000000085
20
-111.71067811865468
10
-22.00000000000006
20
-97.710678118654712
10
-25.000000000000032
20
-97.710678118654712
10
-25.000000000000032
20
-87.710678118654712
10
-22.00000000000006
20
-87.710678118654712
10
-22.000000000002693
20
-64.290805137574068
10
-19.000000000002689
20
-64.290805137574452
10
-19.000000000001407
20
-54.290805137574452
10
-22.000000000001407
20
-54.290805137574061
10
-21.999999999999552
20
-47.460678118653654
42
-0.073713722563636841
10
-21.053975315279093
20
-41.078662494762916
10
-18.954482671903996
20
-42.290805137577159
10
-13.954482671903998
20
-33.630551099732777
10
-16.053975315279189
20
-32.418408456918478
42
-0.14823290014817972
10
-4.9999999999999742
20
-26.036392833026465
10
-4.9999999999999725
20
-28.460678118654972
10
5.0000000000000275
20
-28.460678118654972
10
5.0000000000000089
20
-26.036392833026394
42
-0.14823290014817939
10
16.053975315279285
20
-32.41840845691825
10
13.95448267190419
20
-33.630551099732514
0
ENDSEC
0
SECTION
2
OBJECTS
0
DICTIONARY
5
C
100
AcDbDictionary
3
ACAD_GROUP
350
D
3
ACAD_MLINESTYLE
350
17
0
DICTIONARY
5
D
100
AcDbDictionary
0
DICTIONARY
5
1A
330
C
100
AcDbDictionary
0
DICTIONARY
5
17
100
AcDbDictionary
0
ENDSEC
0
EOF
